<svg width="80" height="80" viewBox="0 0 80 80" fill="none" xmlns="http://www.w3.org/2000/svg">
<path d="M16.6667 20C13.0001 20 10.0001 23 10.0001 26.6667C10.0001 30.3333 13.0001 33.3333 16.6667 33.3333C20.3334 33.3333 23.3334 30.3667 23.3334 26.6667C23.3334 22.9667 20.3667 20 16.6667 20ZM40.0001 13.3333C38.6815 13.3333 37.3926 13.7243 36.2963 14.4569C35.2 15.1894 34.3455 16.2306 33.8409 17.4488C33.3363 18.6669 33.2043 20.0074 33.4615 21.3006C33.7187 22.5938 34.3537 23.7817 35.286 24.714C36.2184 25.6464 37.4063 26.2813 38.6995 26.5386C39.9927 26.7958 41.3331 26.6638 42.5513 26.1592C43.7695 25.6546 44.8107 24.8001 45.5432 23.7038C46.2758 22.6075 46.6667 21.3185 46.6667 20C46.6667 16.3 43.7001 13.3333 40.0001 13.3333ZM63.3334 6.66666C59.6667 6.66666 56.6667 9.66666 56.6667 13.3333C56.6667 17 59.6667 20 63.3334 20C67.0001 20 70.0001 17.0333 70.0001 13.3333C70.0001 9.63332 67.0334 6.66666 63.3334 6.66666ZM11.6667 36.6667C8.90008 36.6667 6.66675 38.9 6.66675 41.6667V56.6667H10.0001V73.3333H23.3334V56.6667H26.6667V41.6667C26.6667 38.9 24.4334 36.6667 21.6667 36.6667H11.6667ZM35.0001 30C32.2334 30 30.0001 32.2333 30.0001 35V50H33.3334V66.6667H46.6667V50H50.0001V35C50.0001 32.2333 47.7667 30 45.0001 30H35.0001ZM58.3334 23.3333C55.5667 23.3333 53.3334 25.5667 53.3334 28.3333V43.3333H56.6667V60H70.0001V43.3333H73.3334V28.3333C73.3334 25.5667 71.1001 23.3333 68.3334 23.3333H58.3334Z" fill="#1B3CA2"/>
</svg>
