<svg width="62" height="62" viewBox="0 0 62 62" fill="none" xmlns="http://www.w3.org/2000/svg">
<path fill-rule="evenodd" clip-rule="evenodd" d="M57.2083 7.18757C57.2083 8.13146 57.0224 9.0661 56.6612 9.93814C56.3 10.8102 55.7705 11.6025 55.1031 12.27C54.4357 12.9374 53.6433 13.4668 52.7713 13.828C51.8992 14.1892 50.9646 14.3751 50.0207 14.3751C49.0768 14.3751 48.1422 14.1892 47.2701 13.828C46.3981 13.4668 45.6058 12.9374 44.9383 12.27C44.2709 11.6025 43.7415 10.8102 43.3803 9.93814C43.0191 9.0661 42.8331 8.13146 42.8331 7.18757C42.8331 5.28131 43.5904 3.45312 44.9383 2.10519C46.2863 0.75726 48.1144 0 50.0207 0C51.927 0 53.7552 0.75726 55.1031 2.10519C56.451 3.45312 57.2083 5.28131 57.2083 7.18757ZM61.7431 29.4943C61.5781 30.2308 61.1671 30.8892 60.5778 31.3609C59.9886 31.8326 59.2562 32.0896 58.5014 32.0894H31.434C30.5531 32.0894 29.7083 31.7395 29.0854 31.1166C28.4625 30.4937 28.1126 29.6489 28.1126 28.768C28.1126 27.8871 28.4625 27.0423 29.0854 26.4194C29.7083 25.7965 30.5531 25.4466 31.434 25.4466H38.502C39.302 22.673 41.0762 20.2815 43.4986 18.7115C45.9209 17.1415 48.8285 16.4987 51.6869 16.9011C54.5453 17.3035 57.1625 18.7242 59.0572 20.9019C60.9519 23.0796 61.9968 25.8681 62 28.7547C61.9998 29.0231 61.9093 29.2836 61.7431 29.4943ZM6.01843 14.7206C6.01843 16.8476 6.86341 18.8876 8.36747 20.3917C9.87154 21.8957 11.9115 22.7407 14.0386 22.7407C16.1656 22.7407 18.2056 21.8957 19.7097 20.3917C21.2137 18.8876 22.0587 16.8476 22.0587 14.7206C22.0587 12.5935 21.2137 10.5535 19.7097 9.04947C18.2056 7.54541 16.1656 6.70043 14.0386 6.70043C11.9115 6.70043 9.87154 7.54541 8.36747 9.04947C6.86341 10.5535 6.01843 12.5935 6.01843 14.7206ZM0 39.9413C-2.74714e-08 38.0977 0.363118 36.2722 1.06862 34.569C1.77413 32.8657 2.8082 31.3181 4.1118 30.0145C5.4154 28.7109 6.963 27.6768 8.66624 26.9713C10.3695 26.2658 12.195 25.9027 14.0386 25.9027C15.8821 25.9027 17.7077 26.2658 19.4109 26.9713C21.1141 27.6768 22.6617 28.7109 23.9653 30.0145C25.2689 31.3181 26.303 32.8657 27.0085 34.569C27.714 36.2722 28.0771 38.0977 28.0771 39.9413V43.741C28.0771 44.3283 27.8439 44.8915 27.4286 45.3067C27.0133 45.722 26.4501 45.9553 25.8629 45.9553H22.0543L20.2917 60.0603C20.2248 60.5957 19.9647 61.0883 19.5602 61.4455C19.1557 61.8027 18.6347 61.9998 18.0951 62H9.97757C9.43797 61.9998 8.91699 61.8027 8.51251 61.4455C8.10804 61.0883 7.84791 60.5957 7.781 60.0603L6.014 45.9553H2.21429C1.62702 45.9553 1.06381 45.722 0.648549 45.3067C0.23329 44.8915 0 44.3283 0 43.741V39.9413Z" fill="#1B3CA2"/>
</svg>
